<?xml version="1.0" encoding="iso-8859-1"?>
<!-- Generator: Adobe Illustrator 19.0.0, SVG Export Plug-In . SVG Version: 6.00 Build 0)  -->
<svg version="1.1" id="Capa_1" xmlns="http://www.w3.org/2000/svg" xmlns:xlink="http://www.w3.org/1999/xlink" x="0px" y="0px"
	 viewBox="0 0 512 512" style="enable-background:new 0 0 512 512;" xml:space="preserve">
<g>
	<g>
		<path d="M191.876,75.056c-16.2-7.429-37.572-11.52-60.18-11.52c-22.608,0-43.981,4.091-60.18,11.52
			c-18.058,8.281-28.002,19.992-28.002,32.975c0,12.983,9.945,24.694,28.002,32.975c16.199,7.428,37.572,11.52,60.18,11.52
			c22.609,0,43.981-4.091,60.18-11.52c18.058-8.281,28.002-19.992,28.002-32.975C219.878,95.048,209.933,83.337,191.876,75.056z
			 M131.696,137.542c-41.896,0-73.2-15.581-73.2-29.512s31.305-29.512,73.2-29.512c15.003,0,28.634,2.005,39.969,5.209v24.303
			h14.983V89.253c11.467,5.461,18.249,12.297,18.249,18.778C204.896,121.962,173.592,137.542,131.696,137.542z"/>
	</g>
</g>
<g>
	<g>
		<rect x="129.08" y="100.543" width="18.479" height="14.983"/>
	</g>
</g>
<g>
	<g>
		<rect x="76.97" y="100.543" width="43.949" height="14.983"/>
	</g>
</g>
<g>
	<g>
		<rect x="217.647" y="229.004" width="14.983" height="100.024"/>
	</g>
</g>
<g>
	<g>
		<rect x="217.647" y="185.714" width="14.983" height="30.631"/>
	</g>
</g>
<g>
	<g>
		<path d="M471.963,125.759c-24.601-14.649-57.153-22.716-91.659-22.716c-34.506,0-67.057,8.068-91.658,22.716
			c-10.334,6.154-18.804,13.188-25.254,20.852v-38.58c0-22.5-14.218-43.359-40.036-58.732
			c-24.601-14.649-57.154-22.716-91.659-22.716c-34.506,0-67.057,8.067-91.658,22.716C14.218,64.673,0,85.531,0,108.031v219.479
			c0,22.5,14.218,43.359,40.037,58.732c24.601,14.649,57.152,22.716,91.658,22.716c34.506,0,67.057-8.068,91.659-22.716
			c10.334-6.153,18.804-13.187,25.253-20.851v38.579c0,22.5,14.219,43.359,40.037,58.732c24.601,14.649,57.152,22.716,91.658,22.716
			c34.506,0,67.058-8.068,91.659-22.716C497.781,447.327,512,426.469,512,403.969V184.492
			C512,161.991,497.781,141.133,471.963,125.759z M248.41,327.509c0,17.008-11.62,33.295-32.721,45.859
			c-17.481,10.409-39.579,17.134-63.636,19.569v-37.576H137.07v38.537c-1.785,0.047-3.576,0.077-5.375,0.077
			c-31.847,0-61.676-7.318-83.993-20.607c-21.099-12.563-32.72-28.85-32.72-45.859v-41.19c9.941,12.112,23.49,21.401,36.46,27.3
			l6.204-13.637c-19.157-8.714-41.809-27.423-42.663-51.486v-41.171c20.295,24.77,55.875,35.158,74.077,39.008l3.1-14.658
			c-22.198-4.695-74.094-20.208-77.177-62.798v-22.734c6.425,7.574,14.826,14.528,25.055,20.62
			c24.601,14.649,57.152,22.717,91.658,22.717c34.506,0,67.057-8.068,91.659-22.717c10.23-6.091,18.63-13.046,25.055-20.62V327.509z
			 M240.951,131.195v-20.182h-14.983v35.884c-3.124,2.435-6.55,4.773-10.278,6.994c-22.317,13.289-52.146,20.607-83.993,20.607
			s-61.676-7.318-83.993-20.607c-21.1-12.565-32.721-28.851-32.721-45.861c0-5.838,1.369-11.591,4.021-17.137h20.847V75.911H29.806
			c4.855-4.92,10.843-9.538,17.897-13.738c22.317-13.289,52.146-20.607,83.993-20.607s61.676,7.318,83.993,20.607
			c21.1,12.563,32.72,28.849,32.72,45.859C248.41,116.015,245.849,123.839,240.951,131.195z M497.017,403.969
			c0,17.008-11.62,33.294-32.72,45.859c-17.48,10.409-39.578,17.134-63.636,19.569v-37.576h-14.983v38.537
			c-1.786,0.047-3.576,0.077-5.376,0.077c-31.847,0-61.676-7.318-83.993-20.607c-21.1-12.563-32.72-28.849-32.72-45.859v-41.19
			c9.941,12.112,23.49,21.401,36.46,27.3l6.204-13.637c-19.155-8.713-41.804-27.419-42.663-51.479v-41.178
			c20.295,24.77,55.875,35.157,74.077,39.008l3.1-14.658c-22.196-4.695-74.084-20.206-77.177-62.786v-22.745
			c6.424,7.574,14.826,14.528,25.055,20.619c24.601,14.649,57.152,22.717,91.658,22.717s67.058-8.068,91.659-22.717
			c10.229-6.091,18.63-13.046,25.055-20.62V403.969z M489.558,207.654v-20.181h-14.983v35.883c-3.124,2.436-6.55,4.774-10.278,6.994
			c-22.317,13.289-52.146,20.607-83.994,20.607c-31.847,0-61.676-7.318-83.993-20.607c-21.1-12.563-32.72-28.849-32.72-45.859
			c0-5.838,1.369-11.591,4.021-17.138h20.847V152.37h-10.044c4.854-4.919,10.842-9.537,17.896-13.737
			c22.317-13.289,52.146-20.607,83.993-20.607s61.677,7.318,83.994,20.607c21.099,12.563,32.72,28.849,32.72,45.859
			C497.017,192.475,494.457,200.299,489.558,207.654z"/>
	</g>
</g>
<g>
	<g>
		<path d="M440.484,151.517c-16.2-7.429-37.572-11.52-60.181-11.52c-22.609,0-43.98,4.091-60.18,11.52
			c-18.058,8.281-28.002,19.992-28.002,32.975c0,12.983,9.944,24.693,28.002,32.975c16.2,7.428,37.571,11.52,60.18,11.52
			c22.609,0,43.981-4.091,60.181-11.52c18.058-8.281,28.002-19.992,28.002-32.975C468.487,171.509,458.542,159.798,440.484,151.517z
			 M380.303,214.003c-13.206,0-25.354-1.55-35.807-4.106V189.63h-14.983v15.47c-13.966-5.71-22.411-13.378-22.411-20.608
			c0.001-13.932,31.306-29.512,73.201-29.512c41.895,0,73.201,15.581,73.201,29.512S422.199,214.003,380.303,214.003z"/>
	</g>
</g>
<g>
	<g>
		<rect x="415.896" y="177.004" width="18.479" height="14.983"/>
	</g>
</g>
<g>
	<g>
		<rect x="363.786" y="177.004" width="43.949" height="14.983"/>
	</g>
</g>
<g>
	<g>
		<rect x="466.247" y="305.455" width="14.983" height="100.024"/>
	</g>
</g>
<g>
	<g>
		<rect x="466.247" y="262.175" width="14.983" height="30.631"/>
	</g>
</g>
<g>
</g>
<g>
</g>
<g>
</g>
<g>
</g>
<g>
</g>
<g>
</g>
<g>
</g>
<g>
</g>
<g>
</g>
<g>
</g>
<g>
</g>
<g>
</g>
<g>
</g>
<g>
</g>
<g>
</g>
</svg>
