<svg height="512" viewBox="0 0 64 64" width="512" xmlns="http://www.w3.org/2000/svg"><g id="Credit_card-3" data-name="Credit card"><path d="m53 9a4.012 4.012 0 0 0 -4-4h-42a4.012 4.012 0 0 0 -4 4v2h50z" fill="#ffcd00"/><path d="m3 11h50v4h-50z" fill="#58595b"/><path d="m3 15v16a4.012 4.012 0 0 0 4 4h4v-2a4 4 0 0 1 4-4h38v-14zm44 10h-10v-4h10z" fill="#ffcd00"/><rect fill="#ffbcab" height="30" rx="4" width="50" x="11" y="29"/><circle cx="52" cy="50" fill="#f7941d" r="3"/><path d="m25 37h-2v3h4v-1a2 2 0 0 0 -2-2z" fill="#ffa733"/><path d="m23 43h2a2 2 0 0 0 2-2v-1h-4z" fill="#ee8700"/><path d="m23 37h-2a2 2 0 0 0 -2 2v2a2 2 0 0 0 2 2h2z" fill="#ff9811"/><path d="m37 21h10v4h-10z" fill="#d80027"/><circle cx="47" cy="50" fill="#f15a29" r="3"/><path d="m43 59h14a4 4 0 0 0 4-4v-14a17.99 17.99 0 0 1 -18 18z" fill="#ff9478"/><g fill="#231f20"><path d="m57 28h-3v-19a5.006 5.006 0 0 0 -5-5h-42a5.006 5.006 0 0 0 -5 5v22a5.006 5.006 0 0 0 5 5h3v19a5.006 5.006 0 0 0 5 5h42a5.006 5.006 0 0 0 5-5v-22a5.006 5.006 0 0 0 -5-5zm-5-14h-48v-2h48zm-45-8h42a3 3 0 0 1 3 3v1h-48v-1a3 3 0 0 1 3-3zm0 28a3 3 0 0 1 -3-3v-15h48v12h-37a5.006 5.006 0 0 0 -5 5v1zm53 21a3 3 0 0 1 -3 3h-42a3 3 0 0 1 -3-3v-22a3 3 0 0 1 3-3h42a3 3 0 0 1 3 3z"/><path d="m52 46a3.988 3.988 0 0 0 -2.51.894 4 4 0 1 0 0 6.212 4 4 0 1 0 2.51-7.106zm-5 6a2 2 0 1 1 2-2 2 2 0 0 1 -2 2zm5 0a1.968 1.968 0 0 1 -1.3-.486 3.946 3.946 0 0 0 0-3.028 1.968 1.968 0 0 1 1.3-.486 2 2 0 0 1 0 4z"/><path d="m26 25a1 1 0 0 0 -1-1h-16a1 1 0 0 0 0 2h16a1 1 0 0 0 1-1z"/><path d="m9 22h1a1 1 0 0 0 0-2h-1a1 1 0 0 0 0 2z"/><path d="m14 22h1a1 1 0 0 0 0-2h-1a1 1 0 0 0 0 2z"/><path d="m19 22h1a1 1 0 0 0 0-2h-1a1 1 0 0 0 0 2z"/><path d="m24 22h1a1 1 0 0 0 0-2h-1a1 1 0 0 0 0 2z"/><path d="m28 39a3 3 0 0 0 -3-3h-4a3 3 0 0 0 -3 3v2a3 3 0 0 0 3 3h4a3 3 0 0 0 3-3zm-2 0h-2v-1h1a1 1 0 0 1 1 1zm-6 2v-2a1 1 0 0 1 1-1h1v4h-1a1 1 0 0 1 -1-1zm5 1h-1v-1h2a1 1 0 0 1 -1 1z"/><path d="m40 38a1 1 0 0 0 -1 1v2a1 1 0 0 0 2 0v-2a1 1 0 0 0 -1-1z"/><path d="m44 42a1 1 0 0 0 1-1v-2a1 1 0 0 0 -2 0v2a1 1 0 0 0 1 1z"/><path d="m48 42a1 1 0 0 0 1-1v-2a1 1 0 0 0 -2 0v2a1 1 0 0 0 1 1z"/><path d="m19 52h-2a1 1 0 0 0 0 2h2a1 1 0 0 0 0-2z"/><path d="m25 52h-2a1 1 0 0 0 0 2h2a1 1 0 0 0 0-2z"/><path d="m31 52h-2a1 1 0 0 0 0 2h2a1 1 0 0 0 0-2z"/><path d="m37 52h-2a1 1 0 0 0 0 2h2a1 1 0 0 0 0-2z"/><path d="m52 42a1 1 0 0 0 1-1v-2a1 1 0 0 0 -2 0v2a1 1 0 0 0 1 1z"/><path d="m37 26h10a1 1 0 0 0 1-1v-4a1 1 0 0 0 -1-1h-10a1 1 0 0 0 -1 1v4a1 1 0 0 0 1 1zm1-4h8v2h-8z"/><path d="m36 42a1 1 0 0 0 1-1v-2a1 1 0 0 0 -2 0v2a1 1 0 0 0 1 1z"/></g></g></svg>