<?xml version="1.0" encoding="iso-8859-1"?>
<!-- Generator: Adobe Illustrator 19.0.0, SVG Export Plug-In . SVG Version: 6.00 Build 0)  -->
<svg version="1.1" id="Capa_1" xmlns="http://www.w3.org/2000/svg" xmlns:xlink="http://www.w3.org/1999/xlink" x="0px" y="0px"
	 viewBox="0 0 512 512" style="enable-background:new 0 0 512 512;" xml:space="preserve">
<g class="orange">
	<g>
		<path d="M296,289c-5.52,0-10,4.48-10,10c0,5.52,4.48,10,10,10c5.52,0,10-4.48,10-10C306,293.48,301.52,289,296,289z"/>
	</g>
</g>
<g>
	<g>
		<path d="M397.21,194.788c-4.06-4.059-9.078-6.803-14.541-8.039c-11.058-48.157-48.62-85.913-96.669-97.246V10
			c0-5.523-4.478-10-10-10h-40c-5.522,0-10,4.477-10,10v79.503c-48.051,11.334-85.614,49.093-96.67,97.253
			C115.989,189.799,106,201.751,106,216c0,8.01,3.121,15.543,8.79,21.212c3.524,3.524,7.77,6.062,12.403,7.478l8.067,53.73
			c-0.011,0.193-0.029,0.384-0.029,0.58c0,1.233,0.234,2.408,0.642,3.498l27.634,184.061C165.771,501.301,178.243,512,193.16,512
			h125.68c14.917,0,27.389-10.699,29.659-25.475l6.909-46c0,0,0,0,0.001-0.001l20.721-138.032c0.407-1.089,0.64-2.262,0.64-3.493
			c0-0.194-0.018-0.383-0.029-0.575l8.068-53.747C397.065,240.906,406,229.478,406,216C406,207.99,402.879,200.457,397.21,194.788z
			 M246,20h20v96c0,5.514-4.486,10-10,10c-5.514,0-10-4.486-10-10V20z M226,110.151V116c0,16.542,13.458,30,30,30s30-13.458,30-30
			v-5.849c36.71,10.352,65.498,39.139,75.85,75.849h-211.7C160.502,149.29,189.29,120.503,226,110.151z M328.727,483.521
			c-0.755,4.913-4.914,8.479-9.887,8.479H193.16c-4.974,0-9.132-3.566-9.882-8.445L178.091,449H333.91L328.727,483.521z M357.93,289
			H336c-5.522,0-10,4.477-10,10s4.478,10,10,10h18.928l-18.016,120H175.088l-18.016-120H256c5.522,0,10-4.477,10-10s-4.478-10-10-10
			H154.069l-6.456-43h216.773L357.93,289z M376,226H136c-2.668,0-5.179-1.041-7.068-2.931c-1.891-1.89-2.932-4.401-2.932-7.069
			c0-5.514,4.486-10,10-10h1.637c0.012,0,0.024,0.001,0.035,0.001s0.022-0.001,0.033-0.001h236.591c0.011,0,0.022,0.001,0.033,0.001
			c0.012,0,0.024-0.001,0.035-0.001H376c2.668,0,5.179,1.041,7.068,2.931c1.891,1.89,2.932,4.401,2.932,7.069
			C386,221.514,381.514,226,376,226z"/>
	</g>
</g>
<g class="orange">
	<g>
		<path d="M256,329c-39.906,0-70,17.196-70,40s30.094,40,70,40s70-17.196,70-40S295.906,329,256,329z M256,389
			c-30.522,0-50-11.845-50-20c0-8.155,19.478-20,50-20c30.522,0,50,11.845,50,20C306,377.155,286.522,389,256,389z"/>
	</g>
</g>
<g>
</g>
<g>
</g>
<g>
</g>
<g>
</g>
<g>
</g>
<g>
</g>
<g>
</g>
<g>
</g>
<g>
</g>
<g>
</g>
<g>
</g>
<g>
</g>
<g>
</g>
<g>
</g>
<g>
</g>
</svg>
