<svg id="Capa_1" enable-background="new 0 0 512.791 512.791" height="512" viewBox="0 0 512.791 512.791" width="512" xmlns="http://www.w3.org/2000/svg"><g><path d="m512.791 345.38c0-15.748-7.219-30.228-19.805-39.728-6.228-4.7-9.822-12.151-9.615-19.931.214-7.973-1.542-15.996-5.077-23.201-4.357-8.88-11.19-16.159-19.621-21.06 10.27-8.718 16.572-21.466 16.976-35.289.12-4.141-3.138-7.595-7.278-7.715-4.112-.128-7.594 3.137-7.716 7.278-.333 11.426-6.502 21.799-16.245 27.564-2.834-2.798-4.987-6.375-6.146-10.391-1.024-3.547-2.454-6.999-4.251-10.258-8.485-15.386-24.681-25.237-42.265-25.709-8.274-.222-15.65-4.076-20.239-10.573-9.322-13.197-24.522-21.076-40.66-21.076-6.038 0-11.942 1.072-17.549 3.187-8.588 3.239-18.1 1.726-24.821-3.951-4.51-3.808-9.64-6.752-15.119-8.739.052-.283.094-.57.114-.864 1.232-18.202 17.037-32.012 35.245-30.779 10.5.71 19.81 6.194 25.541 15.043 5.355 8.271 15.758 11.631 25.291 8.176 4.318-1.565 8.854-2.199 13.485-1.887 13.192.892 24.563 9.528 28.971 22.002 3.307 9.363 12.588 15.278 22.594 14.375 2.437-.219 4.921-.165 7.382.161 7.22.954 13.794 4.232 19.012 9.479 1.466 1.475 3.392 2.212 5.318 2.212 1.912 0 3.824-.727 5.288-2.181 2.938-2.92 2.951-7.669.031-10.606-7.468-7.511-17.299-12.403-27.685-13.775-3.555-.47-7.152-.547-10.689-.229-3.22.285-6.07-1.492-7.108-4.432-6.402-18.125-22.929-30.675-42.101-31.972-6.726-.456-13.318.47-19.609 2.75-2.932 1.064-6.052.147-7.589-2.227-8.327-12.857-21.857-20.823-37.12-21.855-22.446-1.512-42.373 12.695-48.998 33.185-21.677-44.992-67.309-74.216-118.301-74.216-70.36 0-127.995 55.018-131.211 125.253-.189 4.138 3.012 7.646 7.149 7.835.116.005.232.008.349.008 3.984 0 7.302-3.136 7.486-7.157 2.849-62.209 53.901-110.94 116.227-110.94 46.826 0 88.539 27.824 106.806 70.182-6.448.939-12.651 3.135-18.246 6.455-15.499-34.665-49.915-57.337-88.561-57.337-53.518 0-97.057 43.539-97.057 97.056 0 17.603 4.678 34.538 13.566 49.477-6.062 2.697-11.407 6.513-15.829 11.155-6.82-11.127-11.667-23.228-14.431-36.103-.87-4.05-4.861-6.627-8.907-5.759-4.05.87-6.628 4.857-5.759 8.907 3.596 16.749 10.309 32.338 19.957 46.418-2.285 4.964-3.774 10.348-4.326 15.98-.181 1.837-.26 3.702-.236 5.547.108 8.292-3.485 15.843-9.86 20.719-12.947 9.901-20.236 25.542-19.498 41.837.95 20.983 15.255 39.024 34.939 45.182-.166 3.496-.257 7.003-.257 10.52v18.871c0 17.858 14.529 32.387 32.388 32.387h378.549c17.858 0 32.388-14.529 32.388-32.387v-18.871c0-3.511-.087-7.008-.25-10.491 20.622-6.341 34.983-25.348 34.983-47.512zm-370.36-237.931c33.517 0 63.28 20.163 75.866 50.756-5.803 2.46-12.548 2.635-18.808.275-5.606-2.115-11.511-3.188-17.549-3.188-16.403 0-31.746 8.084-41.042 21.625-4.287 6.246-11.251 9.982-18.63 9.994-5.031.009-10.033.786-14.868 2.308-15.94 5.021-28.226 17.618-32.862 33.696-.744 2.581-1.923 4.977-3.463 7.118-7.018-12.305-10.701-26.153-10.701-40.528 0-45.246 36.811-82.056 82.057-82.056zm334.098 269.974c-5.709-48.49-27.365-93.365-62.418-128.418-41.235-41.236-96.063-63.946-154.379-63.946h-6.674c-79.951 0-153.433 43.641-191.769 113.892-1.983 3.636-.645 8.192 2.991 10.176s8.192.645 10.177-2.991c35.705-65.431 104.141-106.078 178.601-106.078h6.674c112.114 0 203.325 91.211 203.325 203.325v18.871c0 9.587-7.8 17.387-17.388 17.387h-378.549c-9.588 0-17.388-7.8-17.388-17.387v-18.871c0-23.739 4.061-47.003 12.067-69.146 1.409-3.895-.606-8.195-4.502-9.604-3.893-1.405-8.195.606-9.604 4.503-5.653 15.631-9.461 31.782-11.417 48.25-12.096-5.13-20.631-16.886-21.242-30.383-.516-11.392 4.577-22.324 13.625-29.243 10.18-7.784 15.919-19.75 15.747-32.827-.016-1.292.04-2.601.166-3.89 1.264-12.871 9.497-23.904 21.485-28.795 11.258-4.593 19.601-13.77 22.892-25.177 3.241-11.237 11.822-20.039 22.956-23.545 3.384-1.066 6.879-1.609 10.388-1.616 12.313-.021 23.893-6.191 30.972-16.505 6.496-9.464 17.216-15.114 28.675-15.114 4.223 0 8.346.748 12.255 2.222 13.672 5.157 28.92 2.657 39.793-6.525 6.252-5.279 14.21-8.187 22.406-8.187s16.154 2.907 22.406 8.187c10.875 9.182 26.12 11.682 39.794 6.524 3.908-1.474 8.031-2.222 12.254-2.222 11.273 0 21.893 5.507 28.408 14.729 7.344 10.399 19.039 16.564 32.089 16.914 12.288.33 23.604 7.212 29.531 17.958 1.259 2.283 2.26 4.697 2.975 7.173 3.308 11.465 11.698 20.817 22.445 25.017 8.111 3.169 14.692 9.223 18.53 17.045 2.506 5.107 3.7 10.555 3.55 16.193-.336 12.615 5.485 24.692 15.573 32.304 8.796 6.639 13.841 16.754 13.841 27.754.001 14.324-8.579 26.756-21.261 32.046z"/><path class="orange" d="m115.873 158.731c1.338 2.564 3.95 4.032 6.655 4.032 1.169 0 2.355-.274 3.464-.852 3.672-1.917 5.096-6.447 3.18-10.119l-2.588-4.959c-1.917-3.673-6.446-5.096-10.119-3.18-3.672 1.917-5.096 6.447-3.18 10.119z"/><path class="orange" d="m161.302 146.38c.136.007.271.011.405.011 3.959 0 7.27-3.101 7.482-7.102l.297-5.586c.22-4.136-2.955-7.667-7.091-7.887-4.138-.229-7.668 2.954-7.888 7.091l-.297 5.586c-.218 4.136 2.956 7.667 7.092 7.887z"/><path class="orange" d="m83.188 187.457 5.145 2.197c.961.41 1.959.604 2.941.604 2.914 0 5.685-1.708 6.901-4.557 1.627-3.81-.143-8.216-3.952-9.843l-5.145-2.197c-3.812-1.626-8.216.144-9.843 3.952-1.626 3.811.143 8.218 3.953 9.844z"/><path class="orange" d="m146.395 362.29h31.372c15.564 0 28.228-12.663 28.228-28.228s-12.663-28.228-28.228-28.228h-31.372c-15.564 0-28.228 12.663-28.228 28.228s12.663 28.228 28.228 28.228zm0-41.455h31.372c7.294 0 13.228 5.934 13.228 13.228s-5.934 13.228-13.228 13.228h-31.372c-7.294 0-13.228-5.934-13.228-13.228s5.934-13.228 13.228-13.228z"/><path class="orange" d="m327.903 330.358h70.586c4.143 0 7.5-3.358 7.5-7.5s-3.357-7.5-7.5-7.5h-70.586c-4.143 0-7.5 3.358-7.5 7.5s3.357 7.5 7.5 7.5z"/><path class="orange" d="m224.825 397.583h75.628c4.143 0 7.5-3.358 7.5-7.5s-3.357-7.5-7.5-7.5h-75.628c-4.143 0-7.5 3.358-7.5 7.5s3.357 7.5 7.5 7.5z"/><path class="orange" d="m343.588 382.583h-10.644c-4.143 0-7.5 3.358-7.5 7.5s3.357 7.5 7.5 7.5h10.644c4.143 0 7.5-3.358 7.5-7.5s-3.357-7.5-7.5-7.5z"/></g></svg>