<svg height="512" viewBox="0 0 58 40" width="512" xmlns="http://www.w3.org/2000/svg"><g id="027---Sushi" fill="none" transform="translate(-1)"><path id="Shape" d="m54 17v13c0 4.418278-3.581722 8-8 8h-32c-4.418278 0-8-3.581722-8-8v-14z" fill="#ecf0f1"/><path id="Shape" d="m54 17v11c0-7-5-6-14-6-8.685 0-17.119-2.984-26-2-6.56.73-7.81 5.18-8 7.54v-11.54z" fill="#d1d4d1"/><path id="Shape" d="m59 21c0 2.7614237-2.2385763 5-5 5 0-7-5-6-14-6-8.43 0-17.113-2.978-26-2-5.358.6-8.03 3.9-8.03 8.3-.00209247.2336948.00792094.4673411.03.7-2.76142375 0-5-2.2385763-5-5-.48114091-10.0974564 6.98881792-18.82117594 17.04-19.9 1.3-.143.5-.1 21.96-.1 10.4906672.00661942 18.9933806 8.5093328 19 19z" fill="#f29c1f"/><g fill="#ecf0f1"><path id="Shape" d="m55.53 10.07c-.3222234 2.4295854-1.1063192 4.7750841-2.31 6.91-.1376213.2337236-.2913252.4575967-.46.67-.2304363.2733082-.5891764.402919-.9410864.3400094s-.6435263-.3087822-.765-.645c-.1214737-.3362177-.0543499-.7117012.1760864-.9850094.05-.06 1.96-2.49 2.56-8.41.636943.65794434 1.218891 1.36698438 1.74 2.12z"/><path id="Shape" d="m47.83 3.7c-.63 9.14-2.9 12.69-2.99 12.85-.309889.4548351-.9240924.5829783-1.39.29-.02-.02-.05-.03-.07-.06-.4037567-.3168402-.4991731-.8893382-.22-1.32.03-.06 2.18-3.56 2.72-12.52.6670551.20718576 1.3186709.46114887 1.95.76z"/><path id="Shape" d="m17.5 14.4c-.2209139.508102-.811898.7409139-1.32.52s-.7409139-.811898-.52-1.32c.02-.03 1.42-3.5.4-11.18.6528222-.14712325 1.3140684-.25399131 1.98-.32 1.11 8.34-.467 12.131-.54 12.3z"/><path id="Shape" d="m11.22 14.94c-.0659011.2575067-.2316107.4781813-.4605245.6132779-.2289138.1350967-.5021944.1734983-.7594755.1067221-.52965277-.1460614-.84814553-.6857297-.72-1.22.42305872-2.7552271-.10230535-5.57244783-1.49-7.99.51278176-.43417122 1.05035409-.83818521 1.61-1.21 2.92 5.27 1.87 9.52 1.82 9.7z"/><path id="Shape" d="m6.39 16.83c-.04058316.5229697-.47546436.9274093-1 .93h-.07c-.26546082-.0179288-.51283237-.140908-.68737247-.341723-.1745401-.2008149-.26185687-.4629072-.24262753-.728277-.01407965-1.5519133-.45333113-3.0702708-1.27-4.39.32963029-.6665438.7072928-1.3082358 1.13-1.92.0212734.0113164.03868363.0287266.05.05 1.17149567 1.6449744 1.88890787 3.5695705 2.08 5.58.01808836.2729542.02142655.5466859.01.82z"/></g><path id="Shape" d="m37 19.89v18.11h-14v-19.89c3.48.364 10.955 1.598 14 1.78z" fill="#d1d4d1"/><path id="Shape" d="m37 2v17.89c-3.248-.194-11.142-1.481-14-1.78v-16.11z" fill="#e57e25"/><rect id="Rectangle-path" fill="#41767f" height="40" rx="2" width="10" x="25"/><path id="Shape" d="m31 29v11h-2v-11c0-.5522847.4477153-1 1-1s1 .4477153 1 1z" fill="#3f5c6c"/><path id="Shape" d="m31 0v25c0 .5522847-.4477153 1-1 1s-1-.4477153-1-1v-25z" fill="#3f5c6c"/></g></svg>